<svg
              class="w-6 h-6"
              xmlns="http://www.w3.org/2000/svg"
              viewBox="0 0 24 24"
              fill="rgb(5,253,158)"
            >
              <path
                d="M20.52 3.48A11.93 11.93 0 0 0 2 12c0 2.12.56 4.21 1.62 6.04L2 22l4.1-1.57A11.94 11.94 0 0 0 12 24c6.63 0 12-5.37 12-12a11.93 11.93 0 0 0-3.48-8.52zM12 22a9.94 9.94 0 0 1-5.3-1.53l-.38-.23-2.44.94.92-2.42-.24-.4A10 10 0 1 1 22 12c0 5.5-4.5 10-10 10zm5.02-7.38c-.27-.14-1.61-.8-1.86-.9s-.43-.14-.62.14c-.19.27-.72.9-.88 1.09-.16.19-.32.21-.59.07a8.02 8.02 0 0 1-4.03-3.53c-.3-.52.3-.49.86-1.63.1-.19.05-.36-.02-.5-.07-.14-.62-1.5-.85-2.06-.22-.53-.44-.46-.62-.47h-.53c-.18 0-.46.07-.7.36-.24.28-.93.91-.93 2.21s.95 2.55 1.08 2.73c.14.18 1.87 2.86 4.53 4.02.63.27 1.12.43 1.5.55.63.2 1.2.17 1.65.1.5-.07 1.61-.65 1.84-1.29.23-.65.23-1.2.16-1.28-.07-.07-.25-.14-.52-.28z"
              />
            </svg>